<svg xmlns="http://www.w3.org/2000/svg" viewBox="0 0 512 512"><defs><linearGradient id="g" x1="0" y1="0" x2="1" y2="1"><stop offset="0" stop-color="#ff9d2f"/><stop offset="1" stop-color="#ff6126"/></linearGradient></defs><rect width="512" height="512" rx="112" fill="url(#g)"/><g transform="translate(256 262) scale(8.4) translate(-24 -24)" fill="none" stroke="#fff" stroke-width="2.7" stroke-linecap="round" stroke-linejoin="round"><path d="M24 13c-2.7-1.9-6.2-3-9.7-3-1.8 0-3.4.2-4.6.6v22.9c1.2-.4 2.8-.6 4.6-.6 3.5 0 7 1.1 9.7 3"/><path d="M24 13c2.7-1.9 6.2-3 9.7-3 1.8 0 3.4.2 4.6.6v22.9c-1.2-.4-2.8-.6-4.6-.6-3.5 0-7 1.1-9.7 3"/><path d="M24 13v22.9"/></g></svg>
